HIERARCHY
ROOT Hips
{
	OFFSET 55.310501 45.591206 43.872097
	CHANNELS 6 Xposition Yposition Zposition Zrotation Xrotation Yrotation
	JOINT Chest
	{
		OFFSET -0.153500 1.163101 7.852402
		CHANNELS 6 Xposition Yposition Zposition Zrotation Xrotation Yrotation
		JOINT Chest2
		{
			OFFSET 0.000000 0.000000 3.343300
			CHANNELS 6 Xposition Yposition Zposition Zrotation Xrotation Yrotation
			JOINT Neck
			{
				OFFSET 0.000000 0.000000 7.785500
				CHANNELS 6 Xposition Yposition Zposition Zrotation Xrotation Yrotation
				JOINT Head
				{
					OFFSET 0.000000 0.000000 2.173901
					CHANNELS 6 Xposition Yposition Zposition Zrotation Xrotation Yrotation
					End Site
					{
						OFFSET 0.000000 0.000000 10.528198
					}
				}
			}
			JOINT LeftCollar
			{
				OFFSET 2.676300 -1.652401 4.938301
				CHANNELS 6 Xposition Yposition Zposition Zrotation Xrotation Yrotation
				JOINT LeftShoulder
				{
					OFFSET 4.299000 0.000000 0.000000
					CHANNELS 6 Xposition Yposition Zposition Zrotation Xrotation Yrotation
					JOINT LeftElbow
					{
						OFFSET 0.000000 0.000000 -10.245102
						CHANNELS 6 Xposition Yposition Zposition Zrotation Xrotation Yrotation
						JOINT LeftWrist
						{
							OFFSET 0.000000 0.000000 -12.703300
							CHANNELS 6 Xposition Yposition Zposition Zrotation Xrotation Yrotation
							End Site
							{
								OFFSET 0.000000 0.000000 -2.173901
							}
						}
					}
				}
			}
			JOINT RightCollar
			{
				OFFSET -2.534599 -1.686401 5.195000
				CHANNELS 6 Xposition Yposition Zposition Zrotation Xrotation Yrotation
				JOINT RightShoulder
				{
					OFFSET -4.144100 0.000000 0.000000
					CHANNELS 6 Xposition Yposition Zposition Zrotation Xrotation Yrotation
					JOINT RightElbow
					{
						OFFSET 0.000000 0.000000 -10.116501
						CHANNELS 6 Xposition Yposition Zposition Zrotation Xrotation Yrotation
						JOINT RightWrist
						{
							OFFSET 0.000000 0.000000 -12.937801
							CHANNELS 6 Xposition Yposition Zposition Zrotation Xrotation Yrotation
							End Site
							{
								OFFSET 0.000000 0.000000 -2.173901
							}
						}
					}
				}
			}
		}
	}
	JOINT LeftHip
	{
		OFFSET 2.175598 0.064499 -2.662899
		CHANNELS 6 Xposition Yposition Zposition Zrotation Xrotation Yrotation
		JOINT LeftKnee
		{
			OFFSET 0.000000 -0.000004 -18.585800
			CHANNELS 6 Xposition Yposition Zposition Zrotation Xrotation Yrotation
			JOINT LeftAnkle
			{
				OFFSET 0.000000 0.000000 -18.979500
				CHANNELS 6 Xposition Yposition Zposition Zrotation Xrotation Yrotation
				End Site
				{
					OFFSET 0.000000 -9.264000 0.000000
				}
			}
		}
	}
	JOINT RightHip
	{
		OFFSET -2.092400 -0.058102 -2.581200
		CHANNELS 6 Xposition Yposition Zposition Zrotation Xrotation Yrotation
		JOINT RightKnee
		{
			OFFSET 0.000000 -0.000004 -18.665001
			CHANNELS 6 Xposition Yposition Zposition Zrotation Xrotation Yrotation
			JOINT RightAnkle
			{
				OFFSET 0.000000 0.000000 -18.566601
				CHANNELS 6 Xposition Yposition Zposition Zrotation Xrotation Yrotation
				End Site
				{
					OFFSET 0.000000 -8.497601 0.000000
				}
			}
		}
	}
}
MOTION
Frames: 4
Frame Time: 0.041667
42.837097 47.830006 48.435692 862.666826 1.844420 1.806532 -0.153503 1.163111 7.852403 36.451944 -6.455269 11.485052 0.000007 -0.000001 3.343300 -23.222327 -6.409343 -2.838514 0.000005 0.000000 7.785497 -54.688693 -11.598444 6.037033 0.000005 -0.000004 2.173902 -5.855966 -6.412890 -6.913605 2.676296 -1.652393 4.938294 -1.528781 4.061996 -7.059617 4.299004 0.000006 -0.000008 -4.415113 35.918107 -59.865857 -0.000013 0.000015 -10.245102 -17.128361 723.732636 0.249761 -0.000003 0.000003 -12.703295 1322.510732 -191.519365 530.867656 -2.534593 -1.686393 5.194994 -5.443306 -0.849749 0.375242 -4.144094 0.000001 0.000004 38.356785 -24.878368 138.285663 0.000002 -0.000001 -10.116499 -51.686733 -4.138398 -1.671999 0.000001 -0.000007 -12.937807 -49.319498 -358.870789 16.620190 2.175596 0.064497 -2.662901 -409.343755 11.236455 7.365488 -0.000003 0.000004 -18.585800 208.072725 -179.321371 -161.402588 -0.000000 0.000004 -18.979517 419.312499 17.526230 -143.045731 -2.092402 -0.058102 -2.581199 194.044103 2.905778 -120.509167 0.000004 0.000004 -18.665005 -880.544218 17.525434 -113.048093 -0.000001 -0.000018 -18.566597 680.328806 6.947721 -34.971050
42.975105 47.837307 48.425087 863.405470 1.676039 1.638510 -0.153500 1.163105 7.852404 35.739996 -6.356958 11.459683 0.000007 -0.000003 3.343305 -22.882858 -6.376225 -2.805275 0.000001 0.000003 7.785512 -54.748512 -11.697603 6.043415 -0.000005 -0.000002 2.173901 -5.836287 -6.473905 -6.958004 2.676295 -1.652394 4.938295 -1.680491 4.123854 -7.003391 4.299000 0.000000 0.000004 -4.147196 36.087144 -59.723789 0.000003 0.000008 -10.245094 -17.581330 723.783726 0.253089 -0.000002 0.000008 -12.703301 1323.379642 -191.715036 531.394127 -2.534597 -1.686399 5.195003 -5.452771 -0.822070 0.379157 -4.144100 0.000009 -0.000011 38.545913 -24.837377 138.462442 -0.000001 -0.000001 -10.116493 -51.860124 -4.174615 -1.705894 0.000007 0.000001 -12.937810 -49.087016 -359.196397 16.148734 2.175596 0.064496 -2.662900 -409.677424 11.547788 7.407681 0.000002 -0.000010 -18.585802 207.890413 -179.435763 -161.244551 0.000002 -0.000002 -18.979517 418.817446 17.630402 -142.878391 -2.092386 -0.058097 -2.581199 194.118689 2.411492 -119.909981 0.000001 0.000002 -18.664997 -880.611153 17.513177 -113.038039 0.000000 -0.000010 -18.566603 680.468306 7.237513 -34.492288
43.120895 47.843712 48.415592 864.136136 1.449167 1.442572 -0.153501 1.163101 7.852402 35.030169 -6.142388 11.420747 -0.000000 0.000000 3.343298 -22.581087 -6.361196 -2.773469 -0.000006 -0.000006 7.785505 -54.907997 -11.768202 6.100722 -0.000010 -0.000003 2.173905 -5.772043 -6.506787 -7.052030 2.676293 -1.652400 4.938314 -1.880779 4.277838 -6.873665 4.299002 0.000004 0.000002 -3.880978 36.234963 -59.650699 -0.000016 0.000004 -10.245103 -17.960901 723.774601 0.267231 -0.000006 -0.000004 -12.703298 1324.396083 -191.783884 531.316153 -2.534602 -1.686404 5.195006 -5.460033 -0.799419 0.275153 -4.144104 0.000005 0.000000 38.733651 -24.696217 138.699736 0.000007 -0.000001 -10.116494 -52.073857 -4.202485 -1.732929 -0.000004 -0.000010 -12.937800 -48.564448 -359.268524 15.766816 2.175599 0.064506 -2.662900 -410.112234 11.895231 7.507125 -0.000008 -0.000006 -18.585800 207.577959 -179.493546 -161.108139 -0.000007 -0.000009 -18.979511 418.451212 17.756023 -142.711270 -2.092397 -0.058099 -2.581204 194.166473 1.778642 -119.220119 0.000001 -0.000004 -18.665005 -880.780324 17.615331 -112.992113 -0.000008 -0.000009 -18.566603 680.691844 7.656567 -33.767021
43.273796 47.851807 48.407295 864.953792 1.169256 1.219449 -0.153495 1.163098 7.852406 34.232348 -5.855356 11.370907 0.000007 -0.000008 3.343300 -22.307179 -6.348888 -2.737042 0.000003 -0.000003 7.785505 -55.114166 -11.806231 6.213152 -0.000006 -0.000008 2.173913 -5.686824 -6.515145 -7.171547 2.676298 -1.652394 4.938311 -2.142218 4.571359 -6.693044 4.298995 -0.000007 -0.000002 -3.579022 36.253497 -59.652140 0.000004 0.000005 -10.245106 -18.195544 723.706190 0.286490 -0.000018 0.000001 -12.703298 1325.202155 -191.795755 531.222389 -2.534593 -1.686410 5.195010 -5.440876 -0.776721 0.091953 -4.144104 -0.000006 -0.000004 38.910348 -24.465657 138.996467 0.000006 0.000001 -10.116483 -52.280501 -4.221823 -1.762406 0.000000 -0.000001 -12.937810 -48.161180 -359.312347 15.405854 2.175604 0.064498 -2.662893 -410.759927 12.266209 7.682803 -0.000005 -0.000002 -18.585796 207.160676 -179.506934 -161.019852 0.000006 -0.000005 -18.979509 418.128991 17.895427 -142.597753 -2.092393 -0.058102 -2.581201 194.101627 1.008585 -118.454250 0.000006 0.000011 -18.665001 -881.043149 17.833279 -112.919495 0.000003 -0.000012 -18.566605 680.918989 8.039599 -33.180325
